<?xml version="1.0" encoding="UTF-8" standalone="no"?>
<!-- Created with Inkscape (http://www.inkscape.org/) -->

<svg
   width="277"
   height="71"
   viewBox="0 0 73.28959 18.785423"
   version="1.1"
   id="svg11891"
   inkscape:version="1.1 (c68e22c387, 2021-05-23)"
   sodipodi:docname="flisol-horizontal.svg"
   xmlns:inkscape="http://www.inkscape.org/namespaces/inkscape"
   xmlns:sodipodi="http://sodipodi.sourceforge.net/DTD/sodipodi-0.dtd"
   xmlns="http://www.w3.org/2000/svg"
   xmlns:svg="http://www.w3.org/2000/svg">
  <sodipodi:namedview
     id="namedview11893"
     pagecolor="#ffffff"
     bordercolor="#666666"
     borderopacity="1.0"
     inkscape:pageshadow="2"
     inkscape:pageopacity="0.0"
     inkscape:pagecheckerboard="0"
     inkscape:document-units="mm"
     showgrid="false"
     width="200mm"
     units="px"
     showguides="true"
     inkscape:guide-bbox="true"
     inkscape:snap-bbox="false"
     inkscape:snap-nodes="true"
     height="75px"
     inkscape:zoom="7.7607152"
     inkscape:cx="185.35663"
     inkscape:cy="57.984347"
     inkscape:window-width="3840"
     inkscape:window-height="1514"
     inkscape:window-x="2869"
     inkscape:window-y="-11"
     inkscape:window-maximized="1"
     inkscape:current-layer="layer1">
    <sodipodi:guide
       position="3.960868,18.57693"
       orientation="1,0"
       id="guide12061" />
    <sodipodi:guide
       position="3.960868,18.57693"
       orientation="0,-1"
       id="guide12063" />
    <sodipodi:guide
       position="69.27627,9.0964091"
       orientation="1,0"
       id="guide12065" />
    <sodipodi:guide
       position="74.06964,5.3053571"
       orientation="0,-1"
       id="guide12067" />
    <sodipodi:guide
       position="51.650362,6.2955758"
       orientation="0,-1"
       id="guide12820" />
  </sodipodi:namedview>
  <defs
     id="defs11888" />
  <g
     inkscape:label="Camada 1"
     inkscape:groupmode="layer"
     id="layer1">
    <g
       id="g443"
       transform="matrix(1.4950481,0,0,1.4950481,-28.36332,-14.510396)">
      <path
         style="color:#000000;fill:#000000;stroke-width:0.149921;-inkscape-stroke:none"
         d="m 28.262901,16.025291 c -0.331186,0.944541 -1.051226,1.116976 -1.666548,1.305675 -0.06831,1.598821 -0.06497,2.494512 0.01002,2.687081 0.205234,0.04517 0.463752,0.04829 0.775536,0.0093 0.180242,-0.019 0.303095,0.02271 0.368576,0.125155 0.0857,0.102183 0.02457,0.171374 -0.02604,0.185001 -0.07968,0.05093 -0.331384,0.08355 -0.755115,0.09786 -0.41963,-0.0043 -0.741921,-0.03459 -0.778299,-0.09151 -0.0021,-0.07874 0.0012,-0.249183 0.0099,-0.511329 -0.0043,-0.907564 0.103258,-1.746901 0.09097,-2.451239 -0.668275,0.05632 -0.984561,-0.23005 -1.381348,-0.44206 -0.06059,-0.01372 -0.123645,0.0092 -0.173578,0.04107 -0.467242,0.363186 -0.997733,0.677265 -1.49774,1.005394 -0.364243,0.232809 -0.43248,0.565006 -0.20472,0.996606 0.105031,0.189395 0.287545,0.537681 0.54758,1.044842 0.0487,9.41e-4 0.129964,-0.03496 0.24379,-0.107714 0.356584,-0.283874 0.725139,-0.502548 1.007319,-0.783933 0.13348,-0.126324 0.18001,-0.191364 0.146365,-0.310492 -0.08755,-0.336528 -0.252054,-0.564107 -0.349096,-0.694433 -0.271301,0.07722 -0.469558,0.15583 -0.594768,0.235859 -0.102437,0.06548 -0.163862,0.08762 -0.150317,0.216319 0.04271,0.116994 0.07973,0.23763 0.111062,0.361901 0.01863,0.0041 0.1377,-0.04794 0.357145,-0.156134 0.143857,-0.07592 0.252172,-0.05696 0.324925,0.05686 -0.01943,0.139713 -0.155529,0.199223 -0.127092,0.177423 -0.192847,0.156367 -0.725562,0.591291 -0.849448,0.326518 -0.04365,-0.06829 -0.09065,-0.254697 -0.140997,-0.559205 -0.05762,-0.315887 -0.108014,-0.465989 -0.01814,-0.517491 0.364234,-0.232805 0.727541,-0.41692 1.089902,-0.552331 0.0457,0.0053 0.103437,-0.02624 0.15031,0.0028 0.294315,0.182541 0.579635,0.830866 0.611833,1.175721 0.0091,0.09789 -0.05523,0.175565 -0.08643,0.21728 -0.473515,0.547874 -1.006122,0.895741 -1.576441,1.296152 -0.174846,0.12778 -0.305915,0.123391 -0.393219,-0.0132 -0.101851,-0.159357 -0.256857,-0.477128 -0.465024,-0.953315 -0.279976,-0.638715 -0.379191,-1.032228 -0.297631,-1.180552 0.132127,-0.244777 0.46568,-0.538138 1.000668,-0.880078 0.298842,-0.184101 1.109152,-0.622026 1.1112,-0.78238 -0.143638,-0.506463 -0.154138,-0.802397 -0.0087,-1.293028 0.183917,-0.510305 0.435524,-0.770785 0.751613,-1.081617 0.550132,-0.43564 1.191621,-0.378481 1.618786,-0.289181 1.199701,0.335146 1.476109,1.192736 1.213223,2.086348 z M 27.73521,14.823422 c -0.167331,-0.261798 -0.465563,-0.439936 -0.894691,-0.534402 -0.429133,-0.09447 -0.774595,-0.05803 -1.036392,0.109297 -0.341474,0.218256 -0.598348,0.518711 -0.77061,0.901375 -0.203248,0.434523 -0.203018,0.811146 7.06e-4,1.129853 0.210984,0.330097 0.574987,0.498249 1.092005,0.504476 0.456947,0.01256 0.861839,-0.09392 1.214698,-0.319455 0.307327,-0.196431 0.497958,-0.462567 0.571883,-0.798407 0.07805,-0.354498 0.01884,-0.685414 -0.17758,-0.992737 z"
         id="path3502-9-2" />
      <path
         style="color:#000000;fill:#000000;stroke-width:0.149921;-inkscape-stroke:none"
         d="m 25.728392,13.876518 c -0.17535,-0.272101 -0.380736,-0.684089 -0.490655,-0.881175 -0.318424,-0.54931 -0.597088,-0.895333 -0.835907,-1.037954 -0.144646,-0.08791 -0.542061,-0.0058 -1.192311,0.246183 -0.484768,0.187323 -0.809051,0.328462 -0.972673,0.423307 -0.140249,0.0813 -0.150251,0.211979 -0.03017,0.392206 0.375307,0.58714 0.699776,1.134328 1.226607,1.631153 0.04032,0.03297 0.115048,0.100625 0.21324,0.09574 0.345924,-0.01721 1.006028,-0.274151 1.201159,-0.560281 0.03108,-0.04557 0.0021,-0.104553 0.0093,-0.149979 -0.11957,-0.367892 -0.287727,-0.738855 -0.504519,-1.112839 -0.04756,-0.09203 -0.199691,-0.04821 -0.517784,-0.0043 -0.306405,0.03708 -0.494642,0.07601 -0.564763,0.116657 -0.269897,0.112291 0.141409,0.663349 0.289333,0.862786 -0.02056,-0.02936 0.03306,0.109139 0.171806,0.134615 0.116871,-0.06775 0.140454,-0.175107 0.07084,-0.322118 -0.09858,-0.22393 -0.145436,-0.345081 -0.140527,-0.363535 0.125514,-0.0259 0.247635,-0.05769 0.366372,-0.09529 0.129159,-0.008 0.148654,0.05441 0.209627,0.159585 0.07453,0.128564 0.144483,0.330047 0.209863,0.604443 -0.134412,0.09129 -0.368955,0.245749 -0.708962,0.318623 -0.120475,0.02845 -0.183359,-0.02092 -0.303775,-0.159763 -0.268886,-0.29411 -0.471443,-0.6718 -0.739588,-1.040357 -0.06775,-0.116876 -0.100068,-0.1996 -0.09702,-0.248209 0.517961,-0.237796 0.873835,-0.405081 1.067605,-0.501798 0.44107,-0.208832 0.770066,-0.126252 0.98686,0.247744 0.297284,0.498896 0.625994,1.066703 0.955809,1.53865 0.05169,-0.0887 0.145944,-0.09973 0.204688,-0.179505 z m -0.979175,1.851834 c -0.0012,-0.07111 -4.7e-4,-0.142339 0.0021,-0.213519 0.0019,-0.02947 0.0042,-0.0589 0.0066,-0.08829 -0.699877,-0.02047 -1.526023,-0.161549 -2.424153,-0.196239 -0.261522,-0.0201 -0.43161,-0.03082 -0.510368,-0.03202 -0.05844,0.03388 -0.102587,0.354535 -0.125123,0.773584 -0.0041,0.42395 0.01757,0.676879 0.06499,0.758692 0.01131,0.05119 0.07787,0.115194 0.183679,0.034 0.105188,-0.06098 0.152219,-0.18188 0.141046,-0.362779 -0.0254,-0.31318 -0.0111,-0.571308 0.04292,-0.774391 0.192746,-0.06558 1.067724,-0.03159 2.618153,0.101044 z"
         id="path3504-9-6" />
      <path
         style="color:#000000;fill:#000000;stroke-width:0.149921;-inkscape-stroke:none"
         d="m 28.296896,14.949537 c 0.2721,-0.175348 0.684088,-0.380733 0.881174,-0.490654 0.54931,-0.318424 0.895331,-0.597088 1.037954,-0.835906 0.08791,-0.144648 0.0058,-0.54206 -0.246189,-1.192311 -0.187322,-0.484767 -0.328465,-0.809049 -0.423309,-0.972673 -0.0813,-0.14025 -0.211977,-0.15025 -0.392205,-0.03017 -0.587141,0.375308 -1.134329,0.699778 -1.631151,1.226605 -0.03297,0.04032 -0.100626,0.115049 -0.09574,0.21324 0.01722,0.345925 0.274153,1.006029 0.560283,1.201161 0.04557,0.03107 0.104551,0.002 0.149977,0.0093 0.367891,-0.11957 0.738859,-0.287725 1.11284,-0.504517 0.09203,-0.04756 0.04821,-0.199693 0.0044,-0.517785 -0.03708,-0.306405 -0.07601,-0.494641 -0.116665,-0.564761 -0.11229,-0.269896 -0.663333,0.141478 -0.862785,0.289332 0.02936,-0.02056 -0.109135,0.03307 -0.134614,0.171806 0.06775,0.116872 0.175106,0.140454 0.322117,0.07084 0.223933,-0.09858 0.345083,-0.145437 0.363538,-0.140527 0.02585,0.125524 0.0577,0.247633 0.09529,0.36637 0.008,0.129162 -0.05441,0.148656 -0.159584,0.209628 -0.128564,0.07453 -0.330051,0.144482 -0.604443,0.209861 -0.0913,-0.134411 -0.245751,-0.368953 -0.318624,-0.708962 -0.02844,-0.120474 0.02093,-0.183356 0.159762,-0.303772 0.294111,-0.268886 0.671803,-0.471444 1.040358,-0.739589 0.116876,-0.06775 0.1996,-0.100068 0.248208,-0.09702 0.237797,0.51796 0.405081,0.873835 0.5018,1.067606 0.208832,0.441068 0.126247,0.770063 -0.247743,0.986859 -0.498899,0.297282 -1.066704,0.625993 -1.53865,0.955808 0.08869,0.05169 0.09973,0.145944 0.179501,0.204688 z m -1.851835,-0.979171 c 0.07112,-0.0012 0.142336,-4.7e-4 0.21352,0.0022 0.02946,0.0018 0.05889,0.0042 0.08829,0.0066 0.02046,-0.699878 0.16155,-1.526024 0.196239,-2.424154 0.02011,-0.261521 0.03082,-0.431609 0.03202,-0.510368 -0.03387,-0.05844 -0.354534,-0.102587 -0.773581,-0.125123 -0.423951,-0.0041 -0.676881,0.01757 -0.758692,0.06499 -0.05116,0.01143 -0.115192,0.07788 -0.034,0.183679 0.06098,0.105189 0.181879,0.152217 0.362778,0.141047 0.313179,-0.0254 0.571309,-0.0111 0.77439,0.04292 0.06558,0.192747 0.03159,1.067724 -0.101044,2.618157 z"
         id="path3506-8-3" />
      <path
         style="color:#000000;fill:#000000;stroke-width:0.149921;-inkscape-stroke:none"
         d="m 27.124372,17.239188 c 0.175347,0.272102 0.481768,0.939288 0.59169,1.136374 0.318424,0.54931 0.597088,0.895332 0.835907,1.037954 0.144645,0.08791 0.54206,0.0058 1.192311,-0.246183 0.484765,-0.187323 0.809048,-0.328462 0.972673,-0.423307 0.140249,-0.0813 0.15025,-0.211979 0.03017,-0.392206 -0.375308,-0.58714 -0.699779,-1.134328 -1.226607,-1.631153 -0.04032,-0.03297 -0.115049,-0.100625 -0.21324,-0.09574 -0.345925,0.01721 -1.006028,0.274151 -1.20116,0.560281 -0.03108,0.04557 -0.0021,0.104553 -0.0093,0.149978 0.119571,0.367893 0.287726,0.738857 0.504516,1.11284 0.04756,0.09203 0.199694,0.04821 0.517784,0.0043 0.306407,-0.03708 0.494642,-0.07601 0.564765,-0.116658 0.269895,-0.112291 -0.141409,-0.663349 -0.289333,-0.862786 0.02053,0.02936 -0.03306,-0.109138 -0.171805,-0.134614 -0.116872,0.06775 -0.140457,0.175107 -0.07084,0.322117 0.09858,0.223931 0.145438,0.345081 0.140529,0.363535 -0.125513,0.02591 -0.247635,0.05769 -0.366372,0.09529 -0.129161,0.008 -0.148656,-0.05441 -0.209627,-0.159585 -0.07453,-0.128563 -0.144483,-0.330046 -0.209862,-0.604442 0.134411,-0.0913 0.368954,-0.245749 0.708961,-0.318624 0.120475,-0.02845 0.183357,0.02093 0.303773,0.159764 0.268886,0.29411 0.471443,0.6718 0.73959,1.040357 0.06775,0.116875 0.100069,0.199599 0.09702,0.248208 -0.517959,0.237797 -0.873833,0.405082 -1.067605,0.501798 -0.441067,0.208832 -0.770064,0.126252 -0.98686,-0.247744 -0.297281,-0.498896 -0.727028,-1.3219 -1.056841,-1.793848 -0.05169,0.0887 -0.145944,0.09973 -0.20469,0.179505 z m 1.080207,-1.596635 c 0.0012,0.07111 4.7e-4,0.142339 -0.0021,0.213519 -0.0019,0.02947 -0.0042,0.0589 -0.0066,0.08829 0.699877,0.02047 1.526023,0.161549 2.424155,0.196238 0.26152,0.0201 0.431608,0.03083 0.510366,0.03202 0.05844,-0.03388 0.102587,-0.354535 0.125123,-0.773584 0.0041,-0.42395 -0.01757,-0.676879 -0.06499,-0.758692 -0.01131,-0.05119 -0.07787,-0.115194 -0.183677,-0.034 -0.105188,0.06098 -0.152216,0.181879 -0.141046,0.36278 0.0254,0.313179 0.0111,0.571307 -0.04292,0.774389 -0.192748,0.06559 -1.067724,0.03159 -2.618158,-0.101043 z"
         id="path3508-9-4" />
      <path
         style="color:#000000;fill:#000000;stroke-width:0.391626;stroke-linecap:round;-inkscape-stroke:none"
         d="m 26.469407,14.695382 a 0.2436009,0.2436009 0 0 1 -0.18786,0.288775 0.2436009,0.2436009 0 0 1 -0.288773,-0.18786 0.2436009,0.2436009 0 0 1 0.187858,-0.288776 0.2436009,0.2436009 0 0 1 0.288775,0.187861 z"
         id="circle3510-6-9" />
      <path
         style="color:#000000;fill:#000000;stroke-width:0.391626;stroke-linecap:round;-inkscape-stroke:none"
         d="m 25.819557,15.154261 a 0.2436009,0.2436009 0 0 1 -0.18786,0.288776 0.2436009,0.2436009 0 0 1 -0.288776,-0.18786 0.2436009,0.2436009 0 0 1 0.187861,-0.288776 0.2436009,0.2436009 0 0 1 0.288775,0.18786 z"
         id="circle3512-1-7" />
      <path
         style="color:#000000;fill:#000000;stroke-width:0.391626;stroke-linecap:round;-inkscape-stroke:none"
         d="m 25.700688,15.958562 a 0.2436009,0.2436009 0 0 1 -0.18786,0.288775 0.2436009,0.2436009 0 0 1 -0.288776,-0.18786 0.2436009,0.2436009 0 0 1 0.18786,-0.288776 0.2436009,0.2436009 0 0 1 0.288776,0.187861 z"
         id="circle3514-2-1" />
      <path
         style="color:#000000;fill:#000000;stroke-width:0.391626;stroke-linecap:round;-inkscape-stroke:none"
         d="m 26.365331,16.404198 a 0.2436009,0.2436009 0 0 1 -0.18786,0.288775 0.2436009,0.2436009 0 0 1 -0.288776,-0.18786 0.2436009,0.2436009 0 0 1 0.187861,-0.288775 0.2436009,0.2436009 0 0 1 0.288775,0.18786 z"
         id="circle3516-6-5" />
      <path
         style="color:#000000;fill:#000000;stroke-width:0.391626;stroke-linecap:round;-inkscape-stroke:none"
         d="m 27.241726,16.218644 a 0.2436009,0.2436009 0 0 1 -0.18786,0.288775 0.2436009,0.2436009 0 0 1 -0.288774,-0.18786 0.2436009,0.2436009 0 0 1 0.187858,-0.288776 0.2436009,0.2436009 0 0 1 0.288776,0.187861 z"
         id="circle3518-0-7" />
      <path
         style="color:#000000;fill:#000000;stroke-width:0.391626;stroke-linecap:round;-inkscape-stroke:none"
         d="m 27.666653,15.494124 a 0.2436009,0.2436009 0 0 1 -0.18786,0.288776 0.2436009,0.2436009 0 0 1 -0.288776,-0.18786 0.2436009,0.2436009 0 0 1 0.187861,-0.288776 0.2436009,0.2436009 0 0 1 0.288775,0.18786 z"
         id="circle3520-9-6" />
      <path
         style="color:#000000;fill:#000000;stroke-width:0.391626;stroke-linecap:round;-inkscape-stroke:none"
         d="m 27.229659,14.871773 a 0.2436009,0.2436009 0 0 1 -0.18786,0.288775 0.2436009,0.2436009 0 0 1 -0.288776,-0.18786 0.2436009,0.2436009 0 0 1 0.187861,-0.288776 0.2436009,0.2436009 0 0 1 0.288775,0.187861 z"
         id="circle3522-1-9" />
      <path
         style="color:#000000;fill:#f1c40f;stroke-width:0.149921;-inkscape-stroke:none"
         d="m 28.204577,15.827815 c -0.331186,0.944541 -1.051226,1.116976 -1.666548,1.305675 -0.06831,1.598821 -0.06497,2.494512 0.01002,2.687081 0.205234,0.04517 0.463752,0.04829 0.775536,0.0093 0.180242,-0.019 0.303095,0.02271 0.368576,0.125155 0.0857,0.102183 0.02458,0.171374 -0.02604,0.185001 -0.07968,0.05093 -0.331384,0.08355 -0.755115,0.09786 -0.41963,-0.0043 -0.741921,-0.03459 -0.778299,-0.09151 -0.0021,-0.07874 0.0012,-0.249183 0.0099,-0.511329 -0.0043,-0.907564 0.103258,-1.746901 0.09097,-2.451239 -0.668275,0.05632 -0.984561,-0.23005 -1.381348,-0.44206 -0.06059,-0.01372 -0.123645,0.0092 -0.173578,0.04107 -0.467242,0.363186 -0.997733,0.677265 -1.49774,1.005394 -0.364243,0.232809 -0.43248,0.565006 -0.20472,0.996606 0.105031,0.189395 0.287545,0.537681 0.54758,1.044842 0.0487,9.41e-4 0.129964,-0.03496 0.24379,-0.107714 0.356584,-0.283874 0.725139,-0.502548 1.007319,-0.783933 0.13348,-0.126324 0.18001,-0.191364 0.146365,-0.310492 -0.08755,-0.336528 -0.252054,-0.564107 -0.349096,-0.694433 -0.271301,0.07721 -0.469558,0.15583 -0.594768,0.235859 -0.102437,0.06548 -0.163862,0.08762 -0.150317,0.216319 0.04271,0.116994 0.07973,0.23763 0.111062,0.361901 0.01863,0.0041 0.1377,-0.04794 0.357145,-0.156134 0.143857,-0.07592 0.252172,-0.05696 0.324925,0.05686 -0.01943,0.139713 -0.155529,0.199223 -0.127092,0.177423 -0.192847,0.156367 -0.725562,0.591291 -0.849448,0.326518 -0.04365,-0.06829 -0.09065,-0.254697 -0.140997,-0.559205 -0.05762,-0.315887 -0.108014,-0.465989 -0.01814,-0.517491 0.364234,-0.232805 0.727541,-0.41692 1.089902,-0.552331 0.0457,0.0053 0.103437,-0.02625 0.15031,0.0028 0.294315,0.182541 0.579635,0.830866 0.611833,1.175721 0.0091,0.09789 -0.05523,0.175565 -0.08643,0.21728 -0.473515,0.547874 -1.006122,0.895741 -1.576441,1.296152 -0.174846,0.12778 -0.305915,0.123391 -0.393219,-0.0132 -0.101851,-0.159357 -0.256857,-0.477128 -0.465024,-0.953315 -0.279976,-0.638715 -0.379191,-1.032228 -0.297631,-1.180552 0.132127,-0.244777 0.46568,-0.538138 1.000668,-0.880078 0.298842,-0.184101 1.109152,-0.622026 1.1112,-0.78238 -0.143638,-0.506463 -0.154138,-0.802397 -0.0087,-1.293028 0.183917,-0.510305 0.435524,-0.770785 0.751613,-1.081617 0.550132,-0.43564 1.191621,-0.378481 1.618786,-0.289181 1.199701,0.335146 1.476109,1.192736 1.213223,2.086348 z m -0.527691,-1.201869 c -0.167331,-0.261798 -0.465563,-0.439936 -0.894691,-0.534402 -0.429133,-0.09447 -0.774595,-0.05803 -1.036392,0.109297 -0.341474,0.218256 -0.598348,0.518711 -0.77061,0.901375 -0.203248,0.434523 -0.203018,0.811146 7.06e-4,1.129853 0.210984,0.330097 0.574987,0.498249 1.092005,0.504476 0.456947,0.01257 0.861839,-0.09392 1.214698,-0.319455 0.307327,-0.196431 0.497958,-0.462567 0.571883,-0.798407 0.07805,-0.354498 0.01884,-0.685414 -0.17758,-0.992737 z"
         id="path3502-1" />
      <path
         style="color:#000000;fill:#f1c40f;stroke-width:0.149921;-inkscape-stroke:none"
         d="m 25.670068,13.679042 c -0.17535,-0.272101 -0.380736,-0.684089 -0.490655,-0.881175 -0.318424,-0.54931 -0.597088,-0.895333 -0.835907,-1.037954 -0.144646,-0.08791 -0.542061,-0.0058 -1.192311,0.246183 -0.484768,0.187323 -0.809051,0.328462 -0.972673,0.423307 -0.140249,0.0813 -0.150251,0.211979 -0.03017,0.392206 0.375307,0.58714 0.699776,1.134328 1.226607,1.631153 0.04032,0.03297 0.115048,0.100625 0.21324,0.09574 0.345924,-0.01721 1.006028,-0.274151 1.201159,-0.560281 0.03108,-0.04557 0.0021,-0.104553 0.0093,-0.149979 -0.11957,-0.367892 -0.287727,-0.738855 -0.504519,-1.112839 -0.04756,-0.09203 -0.199691,-0.04821 -0.517784,-0.0043 -0.306405,0.03708 -0.494642,0.07601 -0.564763,0.116657 -0.269897,0.112291 0.141409,0.663349 0.289333,0.862786 -0.02056,-0.02936 0.03306,0.109139 0.171806,0.134615 0.116871,-0.06775 0.140454,-0.175107 0.07084,-0.322118 -0.09858,-0.22393 -0.145436,-0.345081 -0.140527,-0.363535 0.125514,-0.0259 0.247635,-0.05769 0.366372,-0.09529 0.129159,-0.008 0.148654,0.05441 0.209627,0.159585 0.07453,0.128564 0.144483,0.330047 0.209863,0.604443 -0.134412,0.09129 -0.368955,0.245749 -0.708962,0.318623 -0.120475,0.02845 -0.183359,-0.02092 -0.303775,-0.159763 -0.268886,-0.29411 -0.471443,-0.6718 -0.739588,-1.040357 -0.06775,-0.116876 -0.100068,-0.1996 -0.09702,-0.248209 0.517961,-0.237796 0.873835,-0.405081 1.067605,-0.501798 0.44107,-0.208832 0.770066,-0.126252 0.98686,0.247744 0.297284,0.498896 0.625994,1.066703 0.955809,1.53865 0.05168,-0.0887 0.145944,-0.09973 0.204688,-0.179505 z m -0.979175,1.851834 c -0.0012,-0.07111 -4.7e-4,-0.142339 0.0021,-0.213519 0.0019,-0.02947 0.0042,-0.0589 0.0066,-0.08829 -0.699877,-0.02047 -1.526023,-0.161549 -2.424153,-0.196239 -0.261522,-0.0201 -0.43161,-0.03082 -0.510368,-0.03202 -0.05844,0.03388 -0.102587,0.354535 -0.125123,0.773584 -0.0041,0.42395 0.01757,0.676879 0.06499,0.758692 0.01131,0.05119 0.07787,0.115194 0.183679,0.034 0.105188,-0.06098 0.152219,-0.18188 0.141046,-0.362779 -0.0254,-0.31318 -0.0111,-0.571308 0.04292,-0.774391 0.192746,-0.06558 1.067724,-0.03159 2.618153,0.101044 z"
         id="path3504-5" />
      <path
         style="color:#000000;fill:#f1c40f;stroke-width:0.149921;-inkscape-stroke:none"
         d="m 28.238572,14.752061 c 0.2721,-0.175348 0.684088,-0.380733 0.881174,-0.490654 0.54931,-0.318424 0.895331,-0.597088 1.037954,-0.835906 0.08791,-0.144648 0.0058,-0.54206 -0.246189,-1.192311 -0.187322,-0.484767 -0.328465,-0.809049 -0.423309,-0.972673 -0.0813,-0.14025 -0.211977,-0.15025 -0.392205,-0.03017 -0.587141,0.375308 -1.134329,0.699778 -1.631151,1.226605 -0.03297,0.04032 -0.100626,0.115049 -0.09574,0.21324 0.01722,0.345925 0.274153,1.006029 0.560283,1.201161 0.04557,0.03107 0.104551,0.002 0.149977,0.0093 0.367891,-0.11957 0.738859,-0.287725 1.11284,-0.504517 0.09203,-0.04756 0.04821,-0.199693 0.0044,-0.517785 -0.03708,-0.306405 -0.07601,-0.494641 -0.116665,-0.564761 -0.11229,-0.269896 -0.663333,0.141478 -0.862785,0.289332 0.02936,-0.02056 -0.109135,0.03307 -0.134614,0.171806 0.06775,0.116872 0.175106,0.140454 0.322117,0.07084 0.223933,-0.09858 0.345083,-0.145437 0.363538,-0.140527 0.02585,0.125524 0.05769,0.247633 0.09529,0.36637 0.0079,0.129162 -0.05441,0.148656 -0.159584,0.209628 -0.128564,0.07453 -0.330051,0.144482 -0.604443,0.209861 -0.09129,-0.134411 -0.245751,-0.368953 -0.318624,-0.708962 -0.02844,-0.120474 0.02093,-0.183356 0.159762,-0.303772 0.294111,-0.268886 0.671803,-0.471444 1.040358,-0.739589 0.116876,-0.06775 0.1996,-0.100068 0.248208,-0.09702 0.237797,0.51796 0.405081,0.873835 0.5018,1.067606 0.208832,0.441068 0.126247,0.770063 -0.247743,0.986859 -0.498899,0.297282 -1.066704,0.625993 -1.53865,0.955808 0.08869,0.05169 0.09973,0.145944 0.179501,0.204688 z M 26.386737,13.77289 c 0.07112,-0.0012 0.142336,-4.7e-4 0.21352,0.0022 0.02947,0.0018 0.05889,0.0042 0.08829,0.0066 0.02046,-0.699878 0.16155,-1.526024 0.196239,-2.424154 0.02011,-0.261521 0.03082,-0.431609 0.03202,-0.510368 -0.03387,-0.05844 -0.354534,-0.102587 -0.773581,-0.125123 -0.423951,-0.0041 -0.676881,0.01757 -0.758692,0.06499 -0.05116,0.01143 -0.115192,0.07787 -0.034,0.183679 0.06098,0.105189 0.181879,0.152217 0.362778,0.141047 0.313179,-0.0254 0.571309,-0.0111 0.77439,0.04292 0.06558,0.192747 0.03159,1.067724 -0.101044,2.618157 z"
         id="path3506-1" />
      <path
         style="color:#000000;fill:#f1c40f;stroke-width:0.149921;-inkscape-stroke:none"
         d="m 27.066048,17.041712 c 0.175347,0.272102 0.481768,0.939288 0.59169,1.136374 0.318424,0.54931 0.597088,0.895332 0.835907,1.037954 0.144645,0.08791 0.54206,0.0058 1.192311,-0.246183 0.484765,-0.187323 0.809048,-0.328462 0.972673,-0.423307 0.140249,-0.0813 0.15025,-0.211979 0.03017,-0.392206 -0.375308,-0.58714 -0.699779,-1.134328 -1.226607,-1.631153 -0.04032,-0.03297 -0.115049,-0.100625 -0.21324,-0.09574 -0.345925,0.01721 -1.006028,0.274151 -1.20116,0.560281 -0.03108,0.04557 -0.0021,0.104553 -0.0093,0.149978 0.119571,0.367893 0.287726,0.738857 0.504516,1.11284 0.04756,0.09203 0.199694,0.04821 0.517784,0.0043 0.306407,-0.03709 0.494642,-0.07601 0.564765,-0.116658 0.269895,-0.112291 -0.141409,-0.663349 -0.289333,-0.862786 0.02053,0.02936 -0.03306,-0.109138 -0.171805,-0.134614 -0.116872,0.06775 -0.140457,0.175107 -0.07084,0.322117 0.09858,0.223931 0.145438,0.345081 0.140529,0.363535 -0.125513,0.02591 -0.247635,0.05769 -0.366372,0.09529 -0.129161,0.008 -0.148656,-0.05441 -0.209627,-0.159585 -0.07453,-0.128563 -0.144483,-0.330046 -0.209862,-0.604442 0.134411,-0.0913 0.368954,-0.245749 0.708961,-0.318624 0.120475,-0.02845 0.183357,0.02092 0.303773,0.159764 0.268886,0.29411 0.471443,0.6718 0.73959,1.040357 0.06775,0.116875 0.100069,0.199599 0.09702,0.248208 -0.517959,0.237797 -0.873833,0.405082 -1.067605,0.501798 -0.441067,0.208832 -0.770064,0.126252 -0.98686,-0.247744 -0.297281,-0.498896 -0.727028,-1.3219 -1.056841,-1.793848 -0.05169,0.0887 -0.145944,0.09973 -0.20469,0.179505 z m 1.080207,-1.596635 c 0.0012,0.07111 4.7e-4,0.142339 -0.0021,0.213519 -0.0019,0.02947 -0.0042,0.0589 -0.0066,0.08829 0.699877,0.02047 1.526023,0.161549 2.424155,0.196238 0.26152,0.0201 0.431608,0.03083 0.510366,0.03202 0.05844,-0.03388 0.102587,-0.354535 0.125123,-0.773584 0.0041,-0.42395 -0.01757,-0.676879 -0.06499,-0.758692 -0.01131,-0.05119 -0.07787,-0.115194 -0.183677,-0.034 -0.105188,0.06098 -0.152216,0.181879 -0.141046,0.36278 0.0254,0.313179 0.0111,0.571307 -0.04292,0.774389 -0.192748,0.06559 -1.067724,0.03159 -2.618158,-0.101043 z"
         id="path3508-3" />
      <path
         style="color:#000000;fill:#f1c40f;stroke-width:0.391626;stroke-linecap:round;-inkscape-stroke:none"
         d="m 26.411083,14.497906 a 0.2436009,0.2436009 0 0 1 -0.18786,0.288775 0.2436009,0.2436009 0 0 1 -0.288773,-0.18786 0.2436009,0.2436009 0 0 1 0.187858,-0.288776 0.2436009,0.2436009 0 0 1 0.288775,0.187861 z"
         id="circle3510-5" />
      <path
         style="color:#000000;fill:#f1c40f;stroke-width:0.391626;stroke-linecap:round;-inkscape-stroke:none"
         d="m 25.761233,14.956785 a 0.2436009,0.2436009 0 0 1 -0.18786,0.288776 0.2436009,0.2436009 0 0 1 -0.288776,-0.18786 0.2436009,0.2436009 0 0 1 0.187861,-0.288776 0.2436009,0.2436009 0 0 1 0.288775,0.18786 z"
         id="circle3512-2" />
      <path
         style="color:#000000;fill:#f1c40f;stroke-width:0.391626;stroke-linecap:round;-inkscape-stroke:none"
         d="m 25.642364,15.761086 a 0.2436009,0.2436009 0 0 1 -0.18786,0.288775 0.2436009,0.2436009 0 0 1 -0.288776,-0.18786 0.2436009,0.2436009 0 0 1 0.18786,-0.288776 0.2436009,0.2436009 0 0 1 0.288776,0.187861 z"
         id="circle3514-5" />
      <path
         style="color:#000000;fill:#f1c40f;stroke-width:0.391626;stroke-linecap:round;-inkscape-stroke:none"
         d="m 26.307007,16.206722 a 0.2436009,0.2436009 0 0 1 -0.18786,0.288775 0.2436009,0.2436009 0 0 1 -0.288776,-0.18786 0.2436009,0.2436009 0 0 1 0.187861,-0.288775 0.2436009,0.2436009 0 0 1 0.288775,0.18786 z"
         id="circle3516-2" />
      <path
         style="color:#000000;fill:#f1c40f;stroke-width:0.391626;stroke-linecap:round;-inkscape-stroke:none"
         d="m 27.183402,16.021168 a 0.2436009,0.2436009 0 0 1 -0.18786,0.288775 0.2436009,0.2436009 0 0 1 -0.288774,-0.18786 0.2436009,0.2436009 0 0 1 0.187858,-0.288776 0.2436009,0.2436009 0 0 1 0.288776,0.187861 z"
         id="circle3518-1" />
      <path
         style="color:#000000;fill:#f1c40f;stroke-width:0.391626;stroke-linecap:round;-inkscape-stroke:none"
         d="m 27.608329,15.296648 a 0.2436009,0.2436009 0 0 1 -0.18786,0.288776 0.2436009,0.2436009 0 0 1 -0.288776,-0.18786 0.2436009,0.2436009 0 0 1 0.187861,-0.288776 0.2436009,0.2436009 0 0 1 0.288775,0.18786 z"
         id="circle3520-4" />
      <path
         style="color:#000000;fill:#f1c40f;stroke-width:0.391626;stroke-linecap:round;-inkscape-stroke:none"
         d="m 27.171335,14.674297 a 0.2436009,0.2436009 0 0 1 -0.18786,0.288775 0.2436009,0.2436009 0 0 1 -0.288776,-0.18786 0.2436009,0.2436009 0 0 1 0.187861,-0.288776 0.2436009,0.2436009 0 0 1 0.288775,0.187861 z"
         id="circle3522-3" />
    </g>
    <g
       id="g534"
       transform="matrix(1.2341103,0,0,1.2341103,-19.719811,-10.975839)">
      <g
         id="g459"
         transform="matrix(0.90893465,0,0,0.90893465,1.948572,1.8410858)">
        <path
           style="color:#000000;fill:#000000;stroke:none;stroke-width:0.54628;stroke-linecap:round;-inkscape-stroke:none"
           d="m 37.876119,11.307931 c -0.69241,-0.01199 -1.23893,0.09641 -1.666579,0.337158 -0.427655,0.240751 -0.710251,0.618441 -0.866367,1.030676 -0.312237,0.824469 -0.222991,1.784158 -0.222991,2.745268 v 4.361702 a 0.42746387,0.42746387 0 0 0 0.427846,0.427848 0.42746387,0.42746387 0 0 0 0.427846,-0.427848 v -4.361702 c 0,-0.998022 -0.03797,-1.902499 0.166446,-2.442254 0.102203,-0.269877 0.238855,-0.448928 0.487598,-0.588958 0.248738,-0.140029 0.636607,-0.237557 1.23126,-0.227261 a 0.42746387,0.42746387 0 0 0 0.434254,-0.419312 0.42746387,0.42746387 0 0 0 -0.419313,-0.435317 z"
           id="path3530-4-9" />
        <path
           style="color:#000000;fill:#000000;stroke:none;stroke-width:0.54628;stroke-linecap:round;-inkscape-stroke:none"
           d="m 34.844906,15.112684 a 0.42746387,0.42746387 0 0 0 -0.426781,0.426781 0.42746387,0.42746387 0 0 0 0.426781,0.427848 h 3.012006 a 0.42746387,0.42746387 0 0 0 0.426781,-0.427848 0.42746387,0.42746387 0 0 0 -0.426781,-0.426781 z"
           id="path3534-7-1" />
        <path
           style="color:#000000;fill:#000000;stroke-width:0.422832;stroke-linecap:round;-inkscape-stroke:none"
           d="m 39.166224,11.318478 a 0.42746434,0.42746434 0 0 0 -0.426959,0.426959 v 4.362111 c 0,1.020814 -0.05003,2.012093 0.28161,2.831821 0.165818,0.409864 0.452566,0.778853 0.876223,1.003398 0.423652,0.224549 0.954928,0.304913 1.60957,0.256012 a 0.42746434,0.42746434 0 0 0 0.393927,-0.457517 0.42746434,0.42746434 0 0 0 -0.457517,-0.394752 c -0.550155,0.0411 -0.91043,-0.03484 -1.145448,-0.159391 -0.235019,-0.124566 -0.374756,-0.297077 -0.484769,-0.569005 -0.220025,-0.543851 -0.218849,-1.475684 -0.218849,-2.510566 v -4.362111 a 0.42746434,0.42746434 0 0 0 -0.427788,-0.426959 z"
           id="path3538-89-8" />
        <path
           style="color:#000000;fill:#000000;stroke-width:0.422832;stroke-linecap:round;-inkscape-stroke:none"
           d="m 42.911426,11.331692 a 0.42746434,0.42746434 0 0 0 -0.426959,0.426959 v 8.023076 a 0.42746434,0.42746434 0 0 0 0.426959,0.427788 0.42746434,0.42746434 0 0 0 0.427788,-0.427788 v -8.023076 a 0.42746434,0.42746434 0 0 0 -0.427788,-0.426959 z"
           id="path3540-4-1" />
        <path
           style="color:#000000;fill:#000000;stroke-width:0.422832;stroke-linecap:round;-inkscape-stroke:none"
           d="m 46.631855,11.309392 c -0.261835,0.01175 -0.58251,0.05297 -0.898518,0.170951 -0.632012,0.235966 -1.254649,0.875592 -1.318049,1.984504 v 0.0099 0.01074 c -0.01235,1.460754 0.726942,2.156465 1.314746,2.644354 0.584676,0.485289 1.013043,0.770773 1.013309,1.950644 -0.0554,0.657728 -0.197433,0.934336 -0.427788,1.08681 -0.233318,0.154439 -0.700003,0.226232 -1.46587,0.174253 a 0.42746434,0.42746434 0 0 0 -0.455868,0.39723 0.42746434,0.42746434 0 0 0 0.398058,0.455868 c 0.828591,0.05624 1.479752,0.02655 1.99524,-0.314647 0.515483,-0.341208 0.749428,-0.955981 0.812628,-1.750791 l 0.0017,-0.01653 v -0.01569 c 0.0053,-1.450158 -0.739585,-2.138229 -1.325482,-2.624532 -0.583576,-0.48438 -1.010095,-0.772544 -1.003398,-1.969642 0.05164,-0.837994 0.36827,-1.075249 0.759775,-1.221422 0.393923,-0.14707 0.85026,-0.110664 1.142141,-0.110664 a 0.42746434,0.42746434 0 0 0 0.426964,-0.427783 0.42746434,0.42746434 0 0 0 -0.426964,-0.427788 c -0.07791,0 -0.280743,-0.01755 -0.542578,-0.0058 z"
           id="path3542-9-0" />
        <path
           style="color:#000000;fill:#000000;stroke-width:0.422832;stroke-linecap:round;-inkscape-stroke:none"
           d="m 49.819612,11.285443 c -0.722375,0 -1.317219,0.594844 -1.317219,1.317223 v 6.287152 c 0,0.722383 0.594844,1.317219 1.317219,1.317219 h 0.643335 c 0.722257,0 1.316396,-0.594836 1.316396,-1.317219 v -6.287152 c 0,-0.722383 -0.594135,-1.317223 -1.316396,-1.317223 z m 0,0.854751 h 0.643335 c 0.263175,0 0.461644,0.198972 0.461644,0.462472 v 6.287152 c 0,0.263504 -0.198469,0.461648 -0.461644,0.461648 h -0.643335 c -0.263496,0 -0.462472,-0.198139 -0.462472,-0.461648 v -6.287152 c 0,-0.263504 0.198976,-0.462472 0.462472,-0.462472 z"
           id="path3544-4-0" />
        <path
           style="color:#000000;fill:#000000;stroke-width:0.422832;stroke-linecap:round;-inkscape-stroke:none"
           d="m 53.031323,11.318478 a 0.42746434,0.42746434 0 0 0 -0.427787,0.426959 v 4.362111 c 0,1.020814 -0.05003,2.012093 0.28161,2.831821 0.165822,0.409864 0.453395,0.778853 0.877047,1.003398 0.423657,0.224549 0.954104,0.304913 1.608746,0.256012 A 0.42746434,0.42746434 0 0 0 55.76569,19.741262 0.42746434,0.42746434 0 0 0 55.307349,19.34651 c -0.550156,0.0411 -0.910426,-0.03484 -1.145448,-0.159391 -0.235019,-0.124566 -0.373928,-0.297077 -0.483945,-0.569005 -0.220025,-0.543851 -0.219674,-1.475684 -0.219674,-2.510566 v -4.362111 a 0.42746434,0.42746434 0 0 0 -0.426959,-0.426959 z"
           id="path3564-5-7" />
        <path
           style="color:#000000;fill:#f35a12;stroke:none;stroke-width:0.54628;stroke-linecap:round;-inkscape-stroke:none"
           d="m 37.757729,11.071151 c -0.69241,-0.01199 -1.23893,0.09641 -1.666579,0.337158 -0.427655,0.240751 -0.710251,0.618441 -0.866367,1.030676 -0.312237,0.824469 -0.222991,1.784158 -0.222991,2.745268 v 4.361702 a 0.42746387,0.42746387 0 0 0 0.427846,0.427848 0.42746387,0.42746387 0 0 0 0.427846,-0.427848 v -4.361702 c 0,-0.998022 -0.03797,-1.902499 0.166446,-2.442254 0.102203,-0.269877 0.238855,-0.448928 0.487598,-0.588958 0.248738,-0.140029 0.636607,-0.237557 1.23126,-0.227261 a 0.42746387,0.42746387 0 0 0 0.434254,-0.419312 0.42746387,0.42746387 0 0 0 -0.419313,-0.435317 z"
           id="path3530-4" />
        <path
           style="color:#000000;fill:#f35a12;stroke:none;stroke-width:0.54628;stroke-linecap:round;-inkscape-stroke:none"
           d="m 34.726516,14.875904 a 0.42746387,0.42746387 0 0 0 -0.426781,0.426781 0.42746387,0.42746387 0 0 0 0.426781,0.427848 h 3.012006 a 0.42746387,0.42746387 0 0 0 0.426781,-0.427848 0.42746387,0.42746387 0 0 0 -0.426781,-0.426781 z"
           id="path3534-7" />
        <path
           style="color:#000000;fill:#f35a12;stroke-width:0.422832;stroke-linecap:round;-inkscape-stroke:none"
           d="m 39.047834,11.081698 a 0.42746434,0.42746434 0 0 0 -0.426959,0.426959 v 4.362111 c 0,1.020814 -0.05002,2.012093 0.28161,2.831821 0.165818,0.409864 0.452566,0.778853 0.876223,1.003398 0.423652,0.224549 0.954928,0.304913 1.60957,0.256012 a 0.42746434,0.42746434 0 0 0 0.393927,-0.457517 0.42746434,0.42746434 0 0 0 -0.457517,-0.394752 c -0.550155,0.0411 -0.91043,-0.03484 -1.145448,-0.159391 -0.235019,-0.124566 -0.374756,-0.297077 -0.484769,-0.569005 -0.220025,-0.543851 -0.218849,-1.475684 -0.218849,-2.510566 v -4.362111 a 0.42746434,0.42746434 0 0 0 -0.427788,-0.426959 z"
           id="path3538-89" />
        <path
           style="color:#000000;fill:#f35a12;stroke-width:0.422832;stroke-linecap:round;-inkscape-stroke:none"
           d="m 42.793036,11.094912 a 0.42746434,0.42746434 0 0 0 -0.426959,0.426959 v 8.023076 a 0.42746434,0.42746434 0 0 0 0.426959,0.427788 0.42746434,0.42746434 0 0 0 0.427788,-0.427788 v -8.023076 a 0.42746434,0.42746434 0 0 0 -0.427788,-0.426959 z"
           id="path3540-4" />
        <path
           style="color:#000000;fill:#f35a12;stroke-width:0.422832;stroke-linecap:round;-inkscape-stroke:none"
           d="m 46.513465,11.072612 c -0.261835,0.01175 -0.58251,0.05297 -0.898518,0.170951 -0.632012,0.235966 -1.254649,0.875592 -1.318049,1.984504 v 0.0099 0.01074 c -0.01235,1.460754 0.726942,2.156465 1.314746,2.644354 0.584676,0.485289 1.013043,0.770773 1.013309,1.950644 -0.0554,0.657728 -0.197433,0.934336 -0.427788,1.08681 -0.233318,0.154439 -0.700003,0.226232 -1.46587,0.174253 a 0.42746434,0.42746434 0 0 0 -0.455868,0.39723 0.42746434,0.42746434 0 0 0 0.398058,0.455868 c 0.828591,0.05624 1.479752,0.02655 1.99524,-0.314647 0.515483,-0.341208 0.749428,-0.955981 0.812628,-1.750791 l 0.0017,-0.01653 v -0.01569 c 0.0053,-1.450158 -0.739585,-2.138229 -1.325482,-2.624532 -0.583576,-0.48438 -1.010095,-0.772544 -1.003398,-1.969642 0.05164,-0.837994 0.36827,-1.075249 0.759775,-1.221422 0.393923,-0.14707 0.85026,-0.110664 1.142141,-0.110664 a 0.42746434,0.42746434 0 0 0 0.426964,-0.427783 0.42746434,0.42746434 0 0 0 -0.426964,-0.427788 c -0.07791,0 -0.280743,-0.01755 -0.542578,-0.0058 z"
           id="path3542-9" />
        <path
           style="color:#000000;fill:#f35a12;stroke-width:0.422832;stroke-linecap:round;-inkscape-stroke:none"
           d="m 49.701222,11.048663 c -0.722375,0 -1.317219,0.594844 -1.317219,1.317223 v 6.287152 c 0,0.722383 0.594844,1.317219 1.317219,1.317219 h 0.643335 c 0.722257,0 1.316396,-0.594836 1.316396,-1.317219 v -6.287152 c 0,-0.722383 -0.594135,-1.317223 -1.316396,-1.317223 z m 0,0.854751 h 0.643335 c 0.263175,0 0.461644,0.198972 0.461644,0.462472 v 6.287152 c 0,0.263504 -0.198469,0.461648 -0.461644,0.461648 h -0.643335 c -0.263496,0 -0.462472,-0.198139 -0.462472,-0.461648 v -6.287152 c 0,-0.263504 0.198976,-0.462472 0.462472,-0.462472 z"
           id="path3544-4" />
        <path
           style="color:#000000;fill:#f35a12;stroke-width:0.422832;stroke-linecap:round;-inkscape-stroke:none"
           d="m 52.912933,11.081698 a 0.42746434,0.42746434 0 0 0 -0.427787,0.426959 v 4.362111 c 0,1.020814 -0.05003,2.012093 0.28161,2.831821 0.165822,0.409864 0.453395,0.778853 0.877047,1.003398 0.423657,0.224549 0.954104,0.304913 1.608746,0.256012 A 0.42746434,0.42746434 0 0 0 55.6473,19.504482 0.42746434,0.42746434 0 0 0 55.188959,19.10973 c -0.550156,0.0411 -0.910426,-0.03484 -1.145448,-0.159391 -0.235019,-0.124566 -0.373928,-0.297077 -0.483945,-0.569005 -0.220025,-0.543851 -0.219674,-1.475684 -0.219674,-2.510566 v -4.362111 a 0.42746434,0.42746434 0 0 0 -0.426959,-0.426959 z"
           id="path3564-5" />
      </g>
      <g
         id="g479"
         transform="matrix(0.90893465,0,0,0.90893465,2.3402259,1.8410858)">
        <path
           style="color:#000000;fill:#000000;stroke-width:0.39259;stroke-linecap:round;-inkscape-stroke:none"
           d="m 57.74241,11.402887 a 0.39682955,0.39682955 0 0 0 -0.39719,0.397191 v 4.403599 c 0,0.787008 -0.07564,1.696317 0.05291,2.474386 0.06427,0.389037 0.180096,0.758471 0.432461,1.053549 0.252368,0.295083 0.651345,0.474637 1.107994,0.474637 a 0.39682955,0.39682955 0 0 0 0.396421,-0.396425 0.39682955,0.39682955 0 0 0 -0.396421,-0.397191 c -0.277616,0 -0.395684,-0.06811 -0.505306,-0.196294 -0.109623,-0.128177 -0.201026,-0.356907 -0.252271,-0.667093 -0.102489,-0.620374 -0.04217,-1.514068 -0.04217,-2.345569 V 11.800078 A 0.39682955,0.39682955 0 0 0 57.74241,11.402887 Z"
           id="path3526-5-0" />
        <path
           style="color:#000000;fill:#000000;stroke-width:0.39259;stroke-linecap:round;-inkscape-stroke:none"
           d="m 60.019736,11.402887 a 0.39682955,0.39682955 0 0 0 -0.396421,0.397191 v 4.403599 c 0,0.817108 0.0452,1.710163 -0.05598,2.340968 -0.05059,0.315399 -0.140021,0.554788 -0.240767,0.684732 -0.100746,0.129939 -0.186146,0.185557 -0.413291,0.185557 a 0.39682955,0.39682955 0 0 0 -0.397191,0.396425 0.39682955,0.39682955 0 0 0 0.397191,0.397191 c 0.429407,0 0.810603,-0.19573 1.040516,-0.492272 0.229908,-0.296539 0.335185,-0.659295 0.397187,-1.045882 0.124011,-0.77317 0.06594,-1.683699 0.06594,-2.466719 v -4.403599 a 0.39682955,0.39682955 0 0 0 -0.397191,-0.397191 z"
           id="path3528-8-8" />
        <path
           style="color:#000000;fill:#000000;stroke-width:0.551537;stroke-linecap:round;-inkscape-stroke:none"
           d="m 62.835839,11.369438 c -0.418275,0 -0.7861,0.134139 -1.033056,0.386721 -0.24695,0.252582 -0.358521,0.579207 -0.415803,0.916714 -0.114576,0.675009 -0.03342,1.461285 -0.03342,2.233078 v 4.873338 a 0.39683052,0.39683052 0 0 0 0.397492,0.396417 0.39683052,0.39683052 0 0 0 0.396417,-0.396417 v -4.873338 c 0,-0.819953 -0.06282,-1.602445 0.02156,-2.099501 0.04219,-0.248533 0.115927,-0.408065 0.201438,-0.495523 0.08551,-0.08746 0.195999,-0.14758 0.465359,-0.14758 A 0.39683052,0.39683052 0 0 0 63.23332,11.76693 0.39683052,0.39683052 0 0 0 62.835828,11.369438 Z"
           id="path3546-9-9" />
        <path
           style="color:#000000;fill:#000000;stroke-width:0.551537;stroke-linecap:round;-inkscape-stroke:none"
           d="m 62.876774,11.379134 a 0.39683052,0.39683052 0 0 0 -0.397493,0.397492 0.39683052,0.39683052 0 0 0 0.397493,0.396417 c 0.233597,0 0.320415,0.05124 0.400724,0.13896 0.08031,0.08774 0.15475,0.255714 0.198211,0.507369 0.08691,0.503322 0.03988,1.281523 0.03988,2.086579 v 4.873338 a 0.39683052,0.39683052 0 0 0 0.396417,0.396417 0.39683052,0.39683052 0 0 0 0.396417,-0.396417 v -4.873338 c 0,-0.767055 0.06486,-1.552404 -0.05063,-2.221231 -0.05775,-0.334413 -0.162185,-0.654541 -0.39426,-0.908094 -0.232076,-0.253552 -0.589709,-0.397492 -0.986732,-0.397492 z"
           id="path3548-4-8" />
        <path
           style="color:#000000;fill:#000000;stroke-width:0.551537;stroke-linecap:round;-inkscape-stroke:none"
           d="m 61.799551,15.218341 a 0.39689117,0.39689117 0 0 0 -0.396417,0.397498 0.39689117,0.39689117 0 0 0 0.396417,0.396417 h 2.023019 a 0.39689117,0.39689117 0 0 0 0.396417,-0.396417 0.39689117,0.39689117 0 0 0 -0.396417,-0.397498 z"
           id="path3550-9-0" />
        <path
           style="color:#000000;fill:#000000;stroke-width:0.551537;stroke-linecap:round;-inkscape-stroke:none"
           d="m 68.588451,15.695307 a 0.39683052,0.39683052 0 0 0 -0.373799,0.41796 c 0.0066,0.120979 -0.0022,0.232699 0.0011,0.398573 0.01577,0.878978 -0.07171,1.717601 0.206826,2.449594 0.139263,0.366 0.396119,0.701511 0.779906,0.91779 0.383787,0.216285 0.871968,0.321232 1.49949,0.331788 a 0.39683052,0.39683052 0 0 0 0.403956,-0.389953 0.39683052,0.39683052 0 0 0 -0.389952,-0.403962 c -0.544483,-0.0092 -0.899435,-0.103148 -1.123541,-0.229444 -0.224106,-0.126297 -0.339702,-0.277302 -0.427656,-0.508451 -0.175907,-0.462287 -0.139616,-1.257558 -0.156195,-2.181365 v -0.0011 c -0.0022,-0.123715 0.0076,-0.250751 -0.0022,-0.427656 a 0.39683052,0.39683052 0 0 0 -0.41796,-0.373793 z"
           id="path3554-4-1" />
        <path
           style="color:#000000;fill:#000000;stroke-width:0.551537;stroke-linecap:round;-inkscape-stroke:none"
           d="m 70.715958,11.508152 c -0.117096,0.0017 -0.256276,-0.01274 -0.431963,0.0044 -0.519795,0.04958 -0.934601,0.178245 -1.257117,0.400729 -0.322522,0.222479 -0.532795,0.538427 -0.649561,0.874699 -0.233543,0.672554 -0.166139,1.42838 -0.160508,2.22877 0.0011,0.187688 0.0011,1.203033 -0.0033,1.373452 a 0.39683052,0.39683052 0 0 0 0.386721,0.407189 0.39683052,0.39683052 0 0 0 0.407189,-0.386721 c 0.0057,-0.23405 0.0044,-1.197446 0.0033,-1.399309 v -0.0011 c -0.0058,-0.828011 -0.03232,-1.534573 0.116341,-1.962692 0.07433,-0.214063 0.173662,-0.357991 0.351174,-0.480444 0.177512,-0.122452 0.451659,-0.224023 0.881168,-0.264996 h 0.0011 c 0.07321,-0.0071 0.199739,0.0017 0.367329,-0.0011 a 0.39683052,0.39683052 0 0 0 0.391034,-0.402881 0.39683052,0.39683052 0 0 0 -0.402881,-0.389953 z"
           id="path3556-0-7" />
        <path
           style="color:#000000;fill:#000000;stroke-width:0.551537;stroke-linecap:round;-inkscape-stroke:none"
           d="m 68.784505,15.549883 a 0.39689117,0.39689117 0 0 0 -0.396417,0.397493 0.39689117,0.39689117 0 0 0 0.396417,0.396417 h 1.892675 a 0.39689117,0.39689117 0 0 0 0.396417,-0.396417 0.39689117,0.39689117 0 0 0 -0.396417,-0.397493 z"
           id="path3558-4-6" />
        <path
           style="color:#000000;fill:#000000;stroke-width:0.39259;stroke-linecap:round;-inkscape-stroke:none"
           d="m 65.384108,11.442759 a 0.3968904,0.3968904 0 0 0 -0.397191,0.39719 v 4.466472 c 0,0.947908 -0.04645,1.868201 0.261468,2.629279 0.153962,0.380541 0.420966,0.723166 0.814318,0.931635 0.393355,0.208465 0.885866,0.2831 1.493681,0.237701 a 0.3968904,0.3968904 0 0 0 0.366518,-0.424798 0.3968904,0.3968904 0 0 0 -0.425559,-0.366518 c -0.510814,0.03816 -0.844543,-0.03235 -1.062752,-0.147986 -0.218209,-0.115645 -0.347956,-0.275849 -0.4501,-0.528312 -0.204284,-0.504917 -0.203193,-1.370035 -0.203193,-2.331001 v -4.466472 a 0.3968904,0.3968904 0 0 0 -0.39719,-0.39719 z"
           id="path3566-9-4" />
        <path
           style="color:#000000;fill:#3498db;stroke-width:0.39259;stroke-linecap:round;-inkscape-stroke:none"
           d="m 57.624012,11.166087 a 0.39682955,0.39682955 0 0 0 -0.39719,0.397191 v 4.403599 c 0,0.787008 -0.07564,1.696317 0.05291,2.474386 0.06427,0.389037 0.180096,0.758471 0.432461,1.053549 0.252368,0.295083 0.651345,0.474637 1.107994,0.474637 a 0.39682955,0.39682955 0 0 0 0.396421,-0.396425 0.39682955,0.39682955 0 0 0 -0.396421,-0.397191 c -0.277616,0 -0.395684,-0.06811 -0.505306,-0.196294 -0.109623,-0.128177 -0.201026,-0.356907 -0.252271,-0.667093 -0.102489,-0.620374 -0.04217,-1.514068 -0.04217,-2.345569 v -4.403599 a 0.39682955,0.39682955 0 0 0 -0.396425,-0.397191 z"
           id="path3526-5" />
        <path
           style="color:#000000;fill:#3498db;stroke-width:0.39259;stroke-linecap:round;-inkscape-stroke:none"
           d="m 59.901338,11.166087 a 0.39682955,0.39682955 0 0 0 -0.396421,0.397191 v 4.403599 c 0,0.817108 0.0452,1.710163 -0.05598,2.340968 -0.05059,0.315399 -0.140021,0.554788 -0.240767,0.684732 -0.100746,0.129939 -0.186146,0.185557 -0.413291,0.185557 a 0.39682955,0.39682955 0 0 0 -0.397191,0.396425 0.39682955,0.39682955 0 0 0 0.397191,0.397191 c 0.429407,0 0.810603,-0.19573 1.040516,-0.492272 0.229908,-0.296539 0.335185,-0.659295 0.397187,-1.045882 0.124011,-0.77317 0.06594,-1.683699 0.06594,-2.466719 v -4.403599 a 0.39682955,0.39682955 0 0 0 -0.397191,-0.397191 z"
           id="path3528-8" />
        <path
           style="color:#000000;fill:#3498db;stroke-width:0.551537;stroke-linecap:round;-inkscape-stroke:none"
           d="m 62.717439,11.132638 c -0.418275,0 -0.7861,0.134139 -1.033056,0.386721 -0.24695,0.252582 -0.358521,0.579207 -0.415803,0.916714 -0.114576,0.675009 -0.03342,1.461285 -0.03342,2.233078 v 4.873338 a 0.39683052,0.39683052 0 0 0 0.397492,0.396417 0.39683052,0.39683052 0 0 0 0.396417,-0.396417 v -4.873338 c 0,-0.819953 -0.06282,-1.602445 0.02157,-2.099501 0.04219,-0.248533 0.115927,-0.408065 0.201438,-0.495523 0.08551,-0.08746 0.195999,-0.14758 0.465359,-0.14758 A 0.39683052,0.39683052 0 0 0 63.11492,11.53013 0.39683052,0.39683052 0 0 0 62.717428,11.132638 Z"
           id="path3546-9" />
        <path
           style="color:#000000;fill:#3498db;stroke-width:0.551537;stroke-linecap:round;-inkscape-stroke:none"
           d="m 62.758374,11.142334 a 0.39683052,0.39683052 0 0 0 -0.397493,0.397492 0.39683052,0.39683052 0 0 0 0.397493,0.396417 c 0.233597,0 0.320415,0.05124 0.400724,0.13896 0.08031,0.08774 0.15475,0.255714 0.198211,0.507369 0.08691,0.503322 0.03988,1.281523 0.03988,2.086579 v 4.873338 a 0.39683052,0.39683052 0 0 0 0.396417,0.396417 0.39683052,0.39683052 0 0 0 0.396417,-0.396417 v -4.873338 c 0,-0.767055 0.06486,-1.552404 -0.05063,-2.221231 -0.05775,-0.334413 -0.162185,-0.654541 -0.39426,-0.908094 -0.232076,-0.253552 -0.589709,-0.397492 -0.986732,-0.397492 z"
           id="path3548-4" />
        <path
           style="color:#000000;fill:#3498db;stroke-width:0.551537;stroke-linecap:round;-inkscape-stroke:none"
           d="m 61.681151,14.981541 a 0.39689117,0.39689117 0 0 0 -0.396417,0.397498 0.39689117,0.39689117 0 0 0 0.396417,0.396417 h 2.023019 a 0.39689117,0.39689117 0 0 0 0.396417,-0.396417 0.39689117,0.39689117 0 0 0 -0.396417,-0.397498 z"
           id="path3550-9" />
        <path
           style="color:#000000;fill:#3498db;stroke-width:0.551537;stroke-linecap:round;-inkscape-stroke:none"
           d="m 68.470051,15.458507 a 0.39683052,0.39683052 0 0 0 -0.373799,0.41796 c 0.0066,0.120979 -0.0022,0.232699 0.0011,0.398573 0.01577,0.878978 -0.07171,1.717601 0.206826,2.449594 0.139263,0.366 0.396119,0.701511 0.779906,0.91779 0.383787,0.216285 0.871968,0.321232 1.49949,0.331788 a 0.39683052,0.39683052 0 0 0 0.403956,-0.389953 0.39683052,0.39683052 0 0 0 -0.389952,-0.403962 c -0.544483,-0.0092 -0.899435,-0.103148 -1.123541,-0.229444 -0.224106,-0.126297 -0.339702,-0.277302 -0.427656,-0.508451 -0.175907,-0.462287 -0.139616,-1.257558 -0.156195,-2.181365 v -0.0011 c -0.0022,-0.123715 0.0076,-0.250751 -0.0022,-0.427656 a 0.39683052,0.39683052 0 0 0 -0.41796,-0.373793 z"
           id="path3554-4" />
        <path
           style="color:#000000;fill:#3498db;stroke-width:0.551537;stroke-linecap:round;-inkscape-stroke:none"
           d="m 70.597558,11.271352 c -0.117096,0.0017 -0.256276,-0.01274 -0.431963,0.0044 -0.519795,0.04958 -0.934601,0.178245 -1.257117,0.400729 -0.322522,0.222479 -0.532795,0.538427 -0.649561,0.874699 -0.233543,0.672554 -0.166139,1.42838 -0.160508,2.22877 0.0011,0.187688 0.0011,1.203033 -0.0033,1.373452 a 0.39683052,0.39683052 0 0 0 0.386721,0.407189 0.39683052,0.39683052 0 0 0 0.407189,-0.386721 c 0.0057,-0.23405 0.0044,-1.197446 0.0033,-1.399309 v -0.0011 c -0.0058,-0.828011 -0.03232,-1.534573 0.116341,-1.962692 0.07433,-0.214063 0.173662,-0.357991 0.351174,-0.480444 0.177512,-0.122452 0.451659,-0.224023 0.881168,-0.264996 h 0.0011 c 0.07321,-0.0071 0.199739,0.0017 0.367329,-0.0011 a 0.39683052,0.39683052 0 0 0 0.391034,-0.402881 0.39683052,0.39683052 0 0 0 -0.402881,-0.389953 z"
           id="path3556-0" />
        <path
           style="color:#000000;fill:#3498db;stroke-width:0.551537;stroke-linecap:round;-inkscape-stroke:none"
           d="m 68.666105,15.313083 a 0.39689117,0.39689117 0 0 0 -0.396417,0.397493 0.39689117,0.39689117 0 0 0 0.396417,0.396417 h 1.892675 a 0.39689117,0.39689117 0 0 0 0.396417,-0.396417 0.39689117,0.39689117 0 0 0 -0.396417,-0.397493 z"
           id="path3558-4" />
        <path
           style="color:#000000;fill:#3498db;stroke-width:0.39259;stroke-linecap:round;-inkscape-stroke:none"
           d="m 65.26571,11.205959 a 0.3968904,0.3968904 0 0 0 -0.397191,0.39719 v 4.466472 c 0,0.947908 -0.04645,1.868201 0.261468,2.629279 0.153962,0.380541 0.420966,0.723166 0.814318,0.931635 0.393355,0.208465 0.885866,0.2831 1.493681,0.237701 a 0.3968904,0.3968904 0 0 0 0.366518,-0.424798 0.3968904,0.3968904 0 0 0 -0.425559,-0.366518 c -0.510814,0.03816 -0.844543,-0.03235 -1.062752,-0.147986 -0.218209,-0.115645 -0.347956,-0.275849 -0.4501,-0.528312 C 65.661809,17.895705 65.6629,17.030587 65.6629,16.069621 v -4.466472 a 0.3968904,0.3968904 0 0 0 -0.39719,-0.39719 z"
           id="path3566-9" />
      </g>
      <g
         id="g489"
         transform="matrix(0.90893465,0,0,0.90893465,3.0165206,1.8410858)">
        <path
           style="color:#000000;fill:#000000;stroke-width:0.39259;stroke-linecap:round;-inkscape-stroke:none"
           d="m 75.039358,11.306275 c -0.116918,0 -0.240285,0.02363 -0.348117,0.09201 -0.107837,0.06838 -0.190261,0.175645 -0.24767,0.305945 -0.114812,0.260601 -0.154888,0.623566 -0.154888,1.186202 v 1.240646 c 0,0.545852 0.08644,0.893184 0.2331,1.123328 0.14666,0.23014 0.369278,0.322811 0.540576,0.322811 h 0.06288 c 0.21294,0 0.39679,-0.151175 0.516804,-0.381087 0.120019,-0.229912 0.191698,-0.552943 0.191694,-0.995277 v -1.351828 c 0,-0.475594 -0.04579,-0.831343 -0.164087,-1.098022 -0.118303,-0.266678 -0.356695,-0.444729 -0.624158,-0.444729 z m 0,0.404858 h 0.0061 c 0.122959,0 0.177156,0.03117 0.253805,0.203962 0.07664,0.172779 0.128817,0.486846 0.128817,0.933931 v 1.351828 c 0,0.397006 -0.06882,0.66017 -0.145686,0.807415 -0.07687,0.147249 -0.145777,0.163325 -0.157189,0.163325 h -0.06288 c -0.05305,0 -0.115889,-0.0052 -0.198596,-0.134952 -0.0827,-0.129783 -0.169457,-0.404435 -0.169457,-0.905563 v -1.240646 c 0,-0.540113 0.05149,-0.868251 0.119618,-1.022881 0.03408,-0.07731 0.06604,-0.108103 0.09508,-0.126516 0.02905,-0.01841 0.06521,-0.02991 0.130352,-0.02991 z"
           id="path3568-1-4" />
        <path
           style="color:#000000;fill:#000000;stroke-width:0.39259;stroke-linecap:round;-inkscape-stroke:none"
           d="m 72.601773,11.352279 a 0.198138,0.198138 0 0 0 -0.197826,0.197829 0.198138,0.198138 0 0 0 0.197826,0.198596 c 0.253809,0 0.503307,0.01614 0.656362,0.09278 0.153055,0.07665 0.24767,0.180988 0.24767,0.520641 0,1.322077 -0.555146,1.770076 -1.012913,2.449849 l -0.0024,0.0031 -0.0016,0.0024 c -0.07373,0.117733 -0.157358,0.238824 -0.115782,0.420958 0.02081,0.09107 0.09636,0.17851 0.180194,0.218531 0.08361,0.03991 0.171071,0.05028 0.272972,0.04984 h 0.88026 a 0.198138,0.198138 0 0 0 0.197826,-0.19783 0.198138,0.198138 0 0 0 -0.197826,-0.19783 H 72.82551 c -0.02787,1.38e-4 -0.02575,-0.0024 -0.04218,-0.0046 0.0072,-0.01841 0.0057,-0.0212 0.04141,-0.07821 0.418512,-0.619518 1.07732,-1.231243 1.07732,-2.666084 0,-0.43908 -0.1979,-0.740137 -0.466965,-0.874893 -0.269065,-0.134753 -0.57112,-0.134953 -0.833488,-0.134953 z"
           id="path3562-4-3" />
        <path
           style="color:#000000;fill:#000000;stroke-width:0.39259;stroke-linecap:round;-inkscape-stroke:none"
           d="m 72.601773,16.055686 a 0.198138,0.198138 0 0 0 -0.197826,0.198596 0.198138,0.198138 0 0 0 0.197826,0.197829 c 0.253809,0 0.503307,0.01688 0.656362,0.09355 0.153055,0.07665 0.24767,0.180987 0.24767,0.52064 0,1.322077 -0.555146,1.770081 -1.012913,2.449853 l -0.0024,0.0024 -0.0016,0.0031 c -0.07373,0.117737 -0.157362,0.238054 -0.115782,0.420192 0.02081,0.09107 0.09636,0.179276 0.180194,0.219297 0.08361,0.03991 0.171071,0.05029 0.272972,0.04984 h 0.88026 a 0.198138,0.198138 0 0 0 0.197826,-0.19783 0.198138,0.198138 0 0 0 -0.197826,-0.198595 H 72.82551 c -0.02842,1.41e-4 -0.02642,-0.0024 -0.04294,-0.0046 0.0072,-0.01822 0.0063,-0.02097 0.04217,-0.07821 0.418512,-0.619514 1.07732,-1.23047 1.07732,-2.665314 0,-0.43908 -0.1979,-0.740138 -0.466965,-0.87489 -0.269065,-0.134757 -0.57112,-0.135722 -0.833488,-0.135722 z"
           id="path6497-5-9" />
        <path
           style="color:#000000;fill:#000000;stroke-width:0.39259;stroke-linecap:round;-inkscape-stroke:none"
           d="m 74.644467,16.055686 a 0.198138,0.198138 0 0 0 -0.198595,0.198596 0.198138,0.198138 0 0 0 0.198595,0.197829 c 0.253704,0 0.502562,0.01688 0.655594,0.09355 0.153031,0.07665 0.248434,0.180987 0.248434,0.52064 0,1.322097 -0.55573,1.770136 -1.013678,2.449853 l -0.0016,0.0024 -0.0024,0.0031 c -0.07374,0.117737 -0.157346,0.238474 -0.115017,0.420958 0.02116,0.09124 0.097,0.17873 0.180957,0.218531 0.08374,0.03969 0.171428,0.05029 0.273741,0.04984 h 0.88026 a 0.198138,0.198138 0 0 0 0.197826,-0.19783 0.198138,0.198138 0 0 0 -0.197826,-0.198595 h -0.881026 c -0.0298,1.45e-4 -0.02831,-0.0027 -0.04524,-0.0054 0.0067,-0.01688 0.0088,-0.01998 0.0391,-0.07208 l 7.85e-4,-0.0016 c 0.0016,-0.0027 3.93e-4,-7.85e-4 0.0024,-0.0039 0.418736,-0.619683 1.07809,-1.230243 1.07809,-2.665315 0,-0.43908 -0.197928,-0.740133 -0.46697,-0.874889 -0.269037,-0.134757 -0.571218,-0.135723 -0.833483,-0.135723 z"
           id="path6499-8-2" />
        <path
           style="color:#000000;fill:#ffffff;stroke-width:0.39259;stroke-linecap:round;-inkscape-stroke:none"
           d="m 74.92096,11.069475 c -0.116918,0 -0.240285,0.02363 -0.348117,0.09201 -0.107837,0.06838 -0.190261,0.175645 -0.24767,0.305945 -0.114812,0.260601 -0.154888,0.623566 -0.154888,1.186202 v 1.240646 c 0,0.545852 0.08644,0.893184 0.2331,1.123328 0.14666,0.23014 0.369278,0.322811 0.540576,0.322811 h 0.06288 c 0.21294,0 0.39679,-0.151175 0.516804,-0.381087 0.120019,-0.229912 0.191698,-0.552943 0.191694,-0.995277 v -1.351828 c 0,-0.475594 -0.04579,-0.831343 -0.164087,-1.098022 -0.118303,-0.266678 -0.356695,-0.444729 -0.624158,-0.444729 z m 0,0.404858 h 0.0061 c 0.122959,0 0.177156,0.03117 0.253805,0.203962 0.07665,0.172779 0.128817,0.486846 0.128817,0.933931 v 1.351828 c 0,0.397006 -0.06882,0.66017 -0.145686,0.807415 -0.07687,0.147249 -0.145777,0.163325 -0.157189,0.163325 h -0.06288 c -0.05305,0 -0.115889,-0.0052 -0.198596,-0.134952 -0.0827,-0.129783 -0.169457,-0.404435 -0.169457,-0.905563 v -1.240646 c 0,-0.540113 0.05149,-0.868251 0.119618,-1.022881 0.03408,-0.07731 0.06604,-0.108103 0.09508,-0.126516 0.02905,-0.01841 0.06521,-0.02992 0.130352,-0.02992 z"
           id="path3568-1" />
        <path
           style="color:#000000;fill:#ffffff;stroke-width:0.39259;stroke-linecap:round;-inkscape-stroke:none"
           d="m 72.483375,11.115479 a 0.198138,0.198138 0 0 0 -0.197826,0.197829 0.198138,0.198138 0 0 0 0.197826,0.198596 c 0.253809,0 0.503307,0.01614 0.656362,0.09278 0.153055,0.07665 0.24767,0.180988 0.24767,0.520641 0,1.322077 -0.555146,1.770076 -1.012913,2.449849 l -0.0024,0.0031 -0.0016,0.0024 c -0.07373,0.117733 -0.157358,0.238824 -0.115782,0.420958 0.02081,0.09107 0.09636,0.17851 0.180194,0.218531 0.08361,0.03991 0.171071,0.05028 0.272972,0.04984 h 0.88026 a 0.198138,0.198138 0 0 0 0.197826,-0.19783 0.198138,0.198138 0 0 0 -0.197826,-0.19783 h -0.881026 c -0.02787,1.38e-4 -0.02575,-0.0024 -0.04218,-0.0046 0.0072,-0.01841 0.0057,-0.0212 0.04141,-0.07821 0.418512,-0.619518 1.07732,-1.231243 1.07732,-2.666084 0,-0.43908 -0.1979,-0.740137 -0.466965,-0.874893 -0.269065,-0.134753 -0.57112,-0.134953 -0.833488,-0.134953 z"
           id="path3562-4" />
        <path
           style="color:#000000;fill:#ffffff;stroke-width:0.39259;stroke-linecap:round;-inkscape-stroke:none"
           d="m 72.483375,15.818886 a 0.198138,0.198138 0 0 0 -0.197826,0.198596 0.198138,0.198138 0 0 0 0.197826,0.197829 c 0.253809,0 0.503307,0.01688 0.656362,0.09355 0.153055,0.07665 0.24767,0.180987 0.24767,0.52064 0,1.322077 -0.555146,1.770081 -1.012913,2.449853 l -0.0024,0.0024 -0.0016,0.0031 c -0.07373,0.117737 -0.157362,0.238054 -0.115782,0.420192 0.02081,0.09107 0.09636,0.179276 0.180194,0.219297 0.08361,0.03991 0.171071,0.05029 0.272972,0.04984 h 0.88026 a 0.198138,0.198138 0 0 0 0.197826,-0.19783 0.198138,0.198138 0 0 0 -0.197826,-0.198595 h -0.881026 c -0.02842,1.41e-4 -0.02642,-0.0024 -0.04294,-0.0046 0.0072,-0.01822 0.0063,-0.02097 0.04217,-0.07821 0.418512,-0.619514 1.07732,-1.23047 1.07732,-2.665314 0,-0.43908 -0.1979,-0.740138 -0.466965,-0.87489 -0.269065,-0.134757 -0.57112,-0.135722 -0.833488,-0.135722 z"
           id="path6497-5" />
        <path
           style="color:#000000;fill:#ffffff;stroke-width:0.39259;stroke-linecap:round;-inkscape-stroke:none"
           d="m 74.526069,15.818886 a 0.198138,0.198138 0 0 0 -0.198595,0.198596 0.198138,0.198138 0 0 0 0.198595,0.197829 c 0.253704,0 0.502562,0.01688 0.655594,0.09355 0.153031,0.07665 0.248434,0.180987 0.248434,0.52064 0,1.322097 -0.55573,1.770136 -1.013678,2.449853 l -0.0016,0.0024 -0.0024,0.0031 c -0.07374,0.117737 -0.157346,0.238474 -0.115017,0.420958 0.02116,0.09124 0.097,0.17873 0.180957,0.218531 0.08374,0.03969 0.171428,0.05029 0.273741,0.04984 h 0.88026 a 0.198138,0.198138 0 0 0 0.197826,-0.19783 0.198138,0.198138 0 0 0 -0.197826,-0.198595 h -0.881026 c -0.0298,1.45e-4 -0.02831,-0.0027 -0.04524,-0.0054 0.0067,-0.01688 0.0088,-0.01998 0.0391,-0.07207 l 7.85e-4,-0.0016 c 0.0016,-0.0027 3.93e-4,-7.85e-4 0.0024,-0.0039 0.418736,-0.619683 1.07809,-1.230243 1.07809,-2.665315 0,-0.43908 -0.197928,-0.740133 -0.46697,-0.874889 -0.269037,-0.134757 -0.571218,-0.135723 -0.833483,-0.135723 z"
           id="path6499-8" />
      </g>
    </g>
    <rect
       style="fill:none;stroke:#000000;stroke-width:0.074692"
       id="rect12738"
       width="3.925308"
       height="3.925308"
       x="74.833359"
       y="20.496449" />
  </g>
</svg>
